<svg xmlns="http://www.w3.org/2000/svg" viewBox="0 0 120 120" width="120" height="120">
  <defs>
    <linearGradient id="healthGrad" x1="0%" y1="0%" x2="100%" y2="100%">
      <stop offset="0%" style="stop-color:#22C55E;stop-opacity:1" />
      <stop offset="100%" style="stop-color:#16A34A;stop-opacity:1" />
    </linearGradient>
  </defs>
  <!-- Background heart -->
  <path d="M60 95 C20 70 20 35 60 25 C100 35 100 70 60 95 Z" fill="url(#healthGrad)"/>
  <!-- Heart inner -->
  <path d="M60 85 C30 65 30 40 60 32 C90 40 90 65 60 85 Z" fill="white" opacity="0.3"/>
  <!-- Plus sign -->
  <rect x="52" y="45" width="16" height="6" rx="2" fill="white"/>
  <rect x="57" y="40" width="6" height="16" rx="2" fill="white"/>
  <!-- Pulse line -->
  <path d="M25 75 L40 75 L45 75 L50 65 L55 85 L60 55 L65 85 L70 65 L75 75 L95 75" fill="none" stroke="white" stroke-width="3" stroke-linecap="round" stroke-linejoin="round"/>
</svg>