<svg xmlns="http://www.w3.org/2000/svg" viewBox="0 0 200 200" width="200" height="200">
  <defs>
    <linearGradient id="mainGrad" x1="0%" y1="0%" x2="100%" y2="100%">
      <stop offset="0%" style="stop-color:#00D4FF;stop-opacity:1" />
      <stop offset="50%" style="stop-color:#0099CC;stop-opacity:1" />
      <stop offset="100%" style="stop-color:#006699;stop-opacity:1" />
    </linearGradient>
    <linearGradient id="goldGrad" x1="0%" y1="0%" x2="100%" y2="100%">
      <stop offset="0%" style="stop-color:#FFD700;stop-opacity:1" />
      <stop offset="100%" style="stop-color:#FFA500;stop-opacity:1" />
    </linearGradient>
  </defs>
  
  <!-- Background circle -->
  <circle cx="100" cy="100" r="95" fill="url(#mainGrad)"/>
  
  <!-- Inner ring -->
  <circle cx="100" cy="100" r="80" fill="none" stroke="white" stroke-width="3" opacity="0.3"/>
  
  <!-- Building/Tower -->
  <rect x="55" y="60" width="90" height="100" rx="4" fill="white" opacity="0.95"/>
  
  <!-- Building windows -->
  <rect x="65" y="75" width="20" height="15" rx="2" fill="url(#mainGrad)"/>
  <rect x="115" y="75" width="20" height="15" rx="2" fill="url(#mainGrad)"/>
  <rect x="65" y="100" width="20" height="15" rx="2" fill="url(#mainGrad)"/>
  <rect x="115" y="100" width="20" height="15" rx="2" fill="url(#goldGrad)"/>
  <rect x="65" y="125" width="20" height="15" rx="2" fill="url(#goldGrad)"/>
  <rect x="115" y="125" width="20" height="15" rx="2" fill="url(#mainGrad)"/>
  
  <!-- Roof detail -->
  <rect x="50" y="55" width="100" height="10" rx="2" fill="url(#goldGrad)"/>
  
  <!-- Currency symbol -->
  <text x="100" y="52" text-anchor="middle" font-family="Arial" font-size="18" font-weight="bold" fill="white">₹</text>
  
  <!-- Shield accent -->
  <path d="M155 45 L175 55 L175 85 Q175 105 155 115 Q135 105 135 85 L135 55 Z" fill="url(#goldGrad)" opacity="0.9"/>
  <path d="M155 55 L165 60 L165 80 Q165 95 155 100 Q145 95 145 80 L145 60 Z" fill="white" opacity="0.3"/>
</svg>